<svg width="111" height="56" viewBox="0 0 111 56" fill="none" xmlns="http://www.w3.org/2000/svg">
<path d="M23.4593 43.3398C23.5772 43.4162 23.6368 43.5543 23.6368 43.7543C23.6368 43.9415 23.5838 44.073 23.4786 44.1499C23.3775 44.222 23.2085 44.2584 22.9721 44.2584H21.5731V46.7073C21.5731 46.9964 21.51 47.2151 21.3831 47.3641C21.2561 47.5174 21.0727 47.5938 20.8321 47.5938C20.6042 47.5938 20.4267 47.5235 20.3004 47.3835C20.1735 47.2472 20.1104 47.0139 20.1104 46.6819V43.9912C20.1104 43.8548 20.1296 43.7385 20.1675 43.6404C20.2012 43.5386 20.2517 43.4574 20.3197 43.398C20.387 43.3386 20.4628 43.2938 20.5476 43.2641C20.6318 43.2387 20.7269 43.2259 20.8327 43.2259H22.909C23.1532 43.2253 23.3366 43.2635 23.4593 43.3398Z" fill="white"/>
<path d="M26.4467 46.6365C26.4467 46.9806 26.3836 47.2266 26.2567 47.3732C26.1298 47.5199 25.9361 47.5932 25.6744 47.5932C25.4128 47.5932 25.2209 47.5259 25.0982 47.392C24.9755 47.2581 24.9148 47.0212 24.9148 46.6813V43.9906C24.9148 43.7313 24.9846 43.5386 25.1235 43.4132C25.263 43.2877 25.4465 43.2253 25.6744 43.2253H26.801C27.0753 43.2253 27.3285 43.2629 27.5606 43.3368C27.7928 43.4113 27.9943 43.5156 28.1651 43.6495C28.3359 43.7834 28.4689 43.9512 28.5639 44.1529C28.6589 44.3547 28.7064 44.5795 28.7064 44.8255C28.7064 45.1272 28.6198 45.3896 28.4466 45.6131C28.2734 45.8361 28.0454 46.0033 27.7627 46.1136C27.48 46.2245 27.1613 46.2796 26.807 46.2796H26.4461V46.6365H26.4467ZM27.2449 44.7364C27.2449 44.5795 27.2298 44.4547 27.2004 44.3632C27.1709 44.2717 27.1192 44.2026 27.0452 44.156C26.9712 44.1093 26.8912 44.0784 26.8046 44.0633C26.718 44.0481 26.5989 44.0409 26.4467 44.0409V45.4435C26.5646 45.4435 26.6693 45.4332 26.7601 45.4114C26.8509 45.3902 26.9339 45.3538 27.0103 45.3029C27.0861 45.252 27.1444 45.1787 27.1841 45.083C27.2244 44.9885 27.2449 44.8727 27.2449 44.7364Z" fill="white"/>
<path d="M33.7077 43.3974C33.8298 43.5161 33.8911 43.7118 33.8911 43.9839V44.2583C33.8911 44.3771 33.8761 44.6667 33.8466 45.1254C33.8129 45.6058 33.7877 45.9015 33.7708 46.0118C33.7287 46.2711 33.6656 46.4965 33.5808 46.6879C33.496 46.8752 33.3781 47.0412 33.2265 47.1854C33.0743 47.3344 32.8807 47.4447 32.6443 47.5168C32.4079 47.5889 32.127 47.6253 31.8022 47.6253C31.5406 47.6253 31.2976 47.5913 31.0745 47.5235C30.8507 47.4598 30.6733 47.3811 30.5428 47.2878C30.4117 47.1902 30.3106 47.0945 30.239 47.0006C30.1632 46.9073 30.1254 46.8261 30.1254 46.7582C30.1254 46.6904 30.1506 46.6268 30.2011 46.5668C30.2559 46.5116 30.3281 46.4838 30.4165 46.4838C30.4796 46.4838 30.5536 46.5007 30.6378 46.5347C30.7262 46.5686 30.8086 46.6068 30.885 46.6492C30.965 46.6916 31.06 46.7298 31.1701 46.7637C31.2754 46.7976 31.3812 46.8146 31.4865 46.8146C31.7523 46.8146 31.94 46.757 32.05 46.6425C32.1595 46.5322 32.2148 46.3723 32.2148 46.1645L32.2209 46.1517V46.0687V45.9857C32.1282 45.9942 32.035 45.9985 31.9424 45.9985C31.2711 45.9985 30.7773 45.8543 30.461 45.5646C30.1488 45.2756 29.9924 44.84 29.9924 44.2571V43.9827C29.9924 43.7573 30.0598 43.5743 30.1951 43.4343C30.3256 43.2901 30.4929 43.2174 30.6949 43.2174C30.944 43.2174 31.1316 43.2641 31.2585 43.358C31.389 43.4513 31.4546 43.6409 31.4546 43.9257V44.3783C31.4588 44.5146 31.4799 44.6231 31.5177 44.7037C31.5599 44.7843 31.6146 44.84 31.6826 44.8697C31.7499 44.9036 31.8365 44.9206 31.9418 44.9206C32.047 44.9206 32.1336 44.9079 32.2016 44.8824C32.269 44.857 32.3177 44.8164 32.3472 44.7612C32.3809 44.7061 32.4019 44.651 32.4103 44.5952C32.423 44.5401 32.4296 44.468 32.4296 44.3783V43.9191C32.4296 43.7749 32.4464 43.6537 32.4801 43.5555C32.518 43.458 32.5727 43.3853 32.6449 43.3386C32.7207 43.292 32.7971 43.2598 32.8728 43.2429C32.9528 43.2259 33.0479 43.2174 33.1579 43.2174C33.4015 43.2186 33.5856 43.278 33.7077 43.3974Z" fill="white"/>
<path d="M37.1769 44.717C37.1769 44.5086 36.985 44.4044 36.6007 44.4044C36.5207 44.4044 36.4118 44.4116 36.2747 44.4268C36.1376 44.4419 36.0371 44.4492 35.974 44.4492C35.6702 44.4492 35.518 44.2662 35.518 43.9009C35.518 43.5228 35.9571 43.3332 36.8347 43.3332C37.4042 43.3332 37.8307 43.4265 38.1134 43.6137C38.3961 43.8009 38.5374 44.0451 38.5374 44.3468C38.5374 44.7679 38.3558 45.1036 37.9931 45.3544C38.2379 45.4865 38.4099 45.6234 38.5091 45.7658C38.6084 45.9082 38.6577 46.1136 38.6577 46.3814C38.6577 46.751 38.5133 47.0521 38.224 47.2835C37.9347 47.5156 37.5474 47.6313 37.0626 47.6313C36.4551 47.6313 36.0191 47.5683 35.7556 47.4429C35.4916 47.3175 35.3599 47.1272 35.3599 46.8721C35.3599 46.6595 35.402 46.5141 35.4868 46.4353C35.571 46.3565 35.6895 46.3171 35.841 46.3171C35.9168 46.3171 36.0353 46.3256 36.1953 46.3426C36.3559 46.3596 36.478 46.368 36.5622 46.368C37.0223 46.368 37.2521 46.2832 37.2521 46.113C37.2521 45.9985 37.2076 45.9185 37.1191 45.8736C37.0307 45.8288 36.8635 45.807 36.6193 45.807C36.3745 45.807 36.2013 45.7749 36.1003 45.7113C35.9992 45.6476 35.9481 45.5283 35.9481 45.3544C35.9481 45.0908 36.1213 44.9588 36.4672 44.9588C36.6909 44.9588 36.8563 44.9485 36.964 44.9266C37.0716 44.9054 37.1336 44.8812 37.151 44.8533C37.1679 44.8267 37.1769 44.7812 37.1769 44.717Z" fill="white"/>
<path d="M44.0955 43.372C44.2176 43.4653 44.279 43.6549 44.279 43.9397V46.6431C44.279 46.9873 44.2176 47.2339 44.0955 47.3829C43.9728 47.5277 43.7876 47.5998 43.5386 47.5998C43.2938 47.5998 43.1145 47.532 43.0003 47.3956C42.8866 47.2642 42.8294 47.0279 42.8294 46.688L42.8228 45.9676L42.8162 45.3169L41.5375 47.2236C41.4996 47.2787 41.4635 47.3254 41.4298 47.3641L41.4172 47.3835C41.2993 47.5283 41.111 47.6004 40.8536 47.6004C40.6088 47.6004 40.4296 47.5326 40.3153 47.3962C40.2016 47.2648 40.1445 47.0285 40.1445 46.6886L40.1252 43.9978C40.1252 43.7343 40.1926 43.541 40.3279 43.4174C40.4585 43.2944 40.6341 43.2326 40.8536 43.2326C41.1068 43.2326 41.2927 43.2793 41.4106 43.3732C41.5327 43.4665 41.594 43.6561 41.594 43.9409V45.5289L42.3789 44.3553L42.898 43.5901L42.9173 43.558C42.9804 43.4392 43.0652 43.3562 43.1705 43.3096C43.2715 43.2587 43.3942 43.2332 43.5374 43.2332C43.7834 43.2314 43.9692 43.278 44.0955 43.372Z" fill="white"/>
<path d="M49.9954 46.6365C49.9954 46.9806 49.9341 47.2266 49.812 47.3732C49.6893 47.5199 49.504 47.5932 49.255 47.5932C49.0102 47.5932 48.831 47.5259 48.7167 47.392C48.6024 47.2581 48.5459 47.0212 48.5459 46.6813L48.5393 45.9609H47.2479V46.6371C47.2479 46.9855 47.189 47.2321 47.0705 47.3769C46.952 47.5217 46.7644 47.5938 46.5069 47.5938C46.2621 47.5938 46.0829 47.5265 45.9686 47.3926C45.8544 47.2587 45.7978 47.0218 45.7978 46.6819L45.7786 43.9912C45.7786 43.7276 45.8453 43.5343 45.9783 43.4107C46.1112 43.2877 46.2874 43.226 46.5069 43.226C46.7602 43.226 46.9466 43.2726 47.0669 43.3665C47.1872 43.4598 47.2473 43.6495 47.2473 43.9342V45.0054H48.5327V43.9918C48.5327 43.813 48.5652 43.6658 48.6307 43.5483C48.6963 43.4313 48.7805 43.3483 48.8839 43.2999C48.9874 43.2508 49.1107 43.2266 49.2544 43.2266C49.4992 43.2266 49.6839 43.2732 49.8084 43.3671C49.9329 43.4604 49.9948 43.6501 49.9948 43.9348V46.6365H49.9954Z" fill="white"/>
<path d="M54.0654 44.4238C54.0654 44.3347 54.0287 44.2578 53.9547 44.1941C53.8807 44.1305 53.7935 44.0984 53.6919 44.0984C53.4892 44.0984 53.3226 44.2141 53.192 44.4462C53.0609 44.6782 52.996 44.9406 52.996 45.2338C52.996 45.4592 53.0381 45.6622 53.1223 45.8428C53.2065 46.0233 53.3292 46.1669 53.4892 46.2729C53.6498 46.379 53.835 46.4323 54.0461 46.4323C54.2019 46.4323 54.3523 46.4014 54.4954 46.3396C54.6386 46.2778 54.7553 46.2099 54.8437 46.1354C54.9321 46.0609 55.0241 45.993 55.1191 45.9312C55.2142 45.8694 55.2972 45.8385 55.3694 45.8385C55.462 45.8385 55.5426 45.8755 55.6099 45.95C55.6773 46.0245 55.711 46.1021 55.711 46.1827C55.711 46.2717 55.6845 46.3759 55.6316 46.4953C55.5787 46.614 55.4957 46.7407 55.3814 46.8746C55.2677 47.0085 55.1348 47.1321 54.9826 47.2442C54.8304 47.3569 54.6416 47.4502 54.416 47.5247C54.1905 47.5992 53.9529 47.6362 53.7039 47.6362C53.3749 47.6362 53.07 47.5865 52.7891 47.4865C52.5082 47.3865 52.2646 47.2442 52.0577 47.0594C51.8508 46.8746 51.6884 46.6419 51.5705 46.3614C51.4526 46.0809 51.3931 45.7664 51.3931 45.4174C51.3931 44.7285 51.5976 44.1844 52.0072 43.7852C52.4162 43.3859 52.9527 43.1859 53.6149 43.1859C53.9523 43.1859 54.2645 43.2435 54.552 43.358C54.8389 43.4725 55.0668 43.6325 55.2358 43.8361C55.4048 44.0402 55.489 44.2632 55.489 44.5056C55.489 44.7861 55.3964 45.04 55.2106 45.2678C55.0247 45.495 54.7841 45.6089 54.4888 45.6089C54.3198 45.6089 54.1682 45.5622 54.0329 45.4683C53.8976 45.375 53.8302 45.2411 53.8302 45.0666C53.8302 44.986 53.8693 44.8733 53.9475 44.7285C54.0263 44.5855 54.0654 44.4837 54.0654 44.4238Z" fill="white"/>
<path d="M60.0921 45.495C60.3074 45.5204 60.5035 45.6301 60.6809 45.8234C60.8583 46.0166 60.9467 46.2645 60.9467 46.5662C60.9467 46.8594 60.9257 47.0776 60.8836 47.2199C60.8415 47.3623 60.7699 47.4599 60.6683 47.5132C60.5672 47.5665 60.4126 47.5932 60.2063 47.5932C60.0415 47.5932 59.9056 47.5701 59.7979 47.5229C59.6903 47.4762 59.6115 47.4072 59.5604 47.3157C59.5098 47.2242 59.4846 47.106 59.4846 46.9618C59.4846 46.7746 59.4774 46.6183 59.4623 46.4929C59.4473 46.3675 59.4287 46.2675 59.4052 46.193C59.3817 46.1184 59.3474 46.0621 59.3005 46.0239C59.2542 45.9857 59.2085 45.9615 59.1646 45.9506C59.1201 45.9403 59.06 45.9349 58.9842 45.9349H58.6486V46.6425C58.6486 46.9824 58.583 47.226 58.4525 47.3726C58.3214 47.5192 58.1295 47.5926 57.8763 47.5926C57.6315 47.5926 57.451 47.5235 57.335 47.3853C57.2189 47.2472 57.1611 47.0145 57.1611 46.6874V44.0281C57.1611 43.7603 57.2105 43.5592 57.3097 43.4253C57.4089 43.2914 57.5701 43.2241 57.7939 43.2241C57.9244 43.2241 58.0333 43.2326 58.1199 43.2496C58.2065 43.2665 58.2907 43.2974 58.3731 43.3423C58.4555 43.3871 58.5162 43.4568 58.5565 43.5525C58.5968 43.6482 58.6167 43.7706 58.6167 43.9191C58.6167 44.0512 58.6155 44.1984 58.6137 44.362C58.6113 44.5256 58.6107 44.6413 58.6107 44.7098C58.6107 44.7649 58.6245 44.8115 58.6516 44.8503C58.6792 44.8885 58.7213 44.9194 58.7785 44.943C58.8356 44.9666 58.906 44.9782 58.9908 44.9782C59.1724 44.9782 59.2933 44.9061 59.3547 44.7613C59.416 44.6171 59.4467 44.3214 59.4467 43.8748C59.4467 43.6537 59.5056 43.4901 59.6241 43.3841C59.742 43.278 59.9321 43.2247 60.1937 43.2247C60.4764 43.2247 60.6665 43.2799 60.7633 43.3907C60.8601 43.5016 60.9089 43.6991 60.9089 43.9839C60.9089 44.4516 60.8277 44.814 60.6653 45.0709C60.5023 45.3284 60.311 45.4695 60.0921 45.495Z" fill="white"/>
<path d="M65.6876 47.3793C65.3544 47.5471 64.9797 47.6313 64.5641 47.6313C64.1485 47.6313 63.775 47.5477 63.4436 47.3793C63.1122 47.2115 62.8475 46.9594 62.649 46.6237C62.4506 46.2881 62.3513 45.8924 62.3513 45.4374C62.3513 44.7485 62.557 44.2014 62.9684 43.7955C63.3798 43.3895 63.9127 43.1866 64.5665 43.1866C65.2209 43.1866 65.7544 43.3895 66.1682 43.7955C66.582 44.2014 66.7883 44.7485 66.7883 45.4374C66.7883 45.8924 66.6879 46.2875 66.4876 46.6237C66.2879 46.96 66.0208 47.2115 65.6876 47.3793ZM64.5671 46.7007C64.7103 46.7007 64.8342 46.6371 64.9376 46.5092C65.0411 46.3814 65.115 46.2245 65.1589 46.0372C65.2035 45.85 65.2257 45.6507 65.2257 45.438C65.2257 45.2211 65.2023 45.0163 65.1559 44.8224C65.1096 44.6292 65.0344 44.4644 64.931 44.328C64.8275 44.1917 64.706 44.1239 64.5671 44.1239C64.4318 44.1239 64.3139 44.1917 64.2128 44.328C64.1118 44.4644 64.0354 44.6298 63.9849 44.8255C63.9344 45.0212 63.9091 45.2254 63.9091 45.4374C63.9091 45.6501 63.9332 45.85 63.9819 46.0366C64.0306 46.2239 64.1064 46.3808 64.2098 46.5086C64.3133 46.6365 64.4324 46.7007 64.5671 46.7007Z" fill="white"/>
<path d="M70.8152 45.0042C71.0389 45.0042 71.1959 45.0406 71.2867 45.1127C71.3776 45.1848 71.4227 45.3084 71.4227 45.4823C71.4227 45.6271 71.3691 45.7301 71.2615 45.7913C71.1538 45.8531 70.986 45.884 70.7581 45.884H69.7326V46.5601L71.1063 46.5668C71.3427 46.5668 71.5123 46.602 71.6157 46.6722C71.7192 46.7425 71.7709 46.8667 71.7709 47.0455C71.7709 47.2496 71.7108 47.392 71.5905 47.4726C71.4702 47.5532 71.2873 47.5938 71.0432 47.5938H68.9922C68.7431 47.5938 68.5609 47.5265 68.4448 47.3926C68.3287 47.2587 68.271 47.0218 68.271 46.6819V43.9912C68.271 43.481 68.5116 43.226 68.9928 43.226H71.0438C71.2885 43.226 71.4708 43.2641 71.5911 43.3405C71.7114 43.4168 71.7715 43.5549 71.7715 43.7549C71.7715 43.9421 71.7198 44.073 71.6163 44.1469C71.5129 44.2214 71.3433 44.2584 71.1069 44.2584H69.7271V45.0042H70.8152Z" fill="white"/>
<path d="M79.2279 45.2017C79.4011 45.4271 79.4877 45.6907 79.4877 45.9924C79.4877 46.239 79.439 46.462 79.3421 46.6619C79.2495 46.8661 79.1166 47.0339 78.9434 47.1654C78.7744 47.3017 78.5741 47.4053 78.3419 47.478C78.1097 47.5544 77.8565 47.5926 77.5822 47.5926H76.4491C76.4112 47.5926 76.3733 47.5907 76.3354 47.5859H76.3288H76.3162C76.1514 47.5647 76.0142 47.5029 75.9048 47.4011C75.7652 47.2781 75.696 47.0866 75.696 46.8273V44.1366C75.696 43.7967 75.7574 43.5586 75.8795 43.4223C75.9932 43.2993 76.1664 43.2332 76.3986 43.2247H76.4491H78.5253C78.7701 43.2247 78.9518 43.2629 79.0697 43.3392C79.1918 43.4156 79.2531 43.5537 79.2531 43.7537C79.2531 43.9409 79.2002 44.0724 79.0949 44.1493C78.9939 44.2214 78.8249 44.2578 78.5885 44.2578H77.2274V44.5383H77.5883C77.9425 44.5383 78.2613 44.5934 78.544 44.7043C78.8273 44.8152 79.0546 44.9806 79.2279 45.2017ZM77.981 46.4517C78.0105 46.3626 78.0255 46.239 78.0255 46.0821C78.0255 45.9458 78.0063 45.8294 77.9684 45.7313C77.9263 45.638 77.8673 45.5653 77.791 45.5144C77.7146 45.4635 77.6328 45.4271 77.5444 45.4059C77.4517 45.3847 77.3459 45.3738 77.228 45.3738V46.7764C77.3801 46.7764 77.5004 46.7679 77.5889 46.751C77.6731 46.7383 77.7513 46.7086 77.8228 46.6619C77.8986 46.6153 77.9515 46.545 77.981 46.4517Z" fill="white"/>
<path d="M84.9759 43.372C85.098 43.4653 85.1593 43.6549 85.1593 43.9397V46.6431C85.1593 46.9873 85.098 47.2339 84.9759 47.3829C84.8532 47.5277 84.668 47.5998 84.4189 47.5998C84.1741 47.5998 83.9949 47.532 83.8806 47.3956C83.7669 47.2642 83.7098 47.0279 83.7098 46.688L83.7032 45.9676L83.6966 45.3169L82.4179 47.2236C82.38 47.2787 82.3439 47.3254 82.3102 47.3641L82.2976 47.3835C82.1797 47.5283 81.9914 47.6004 81.734 47.6004C81.4892 47.6004 81.31 47.5326 81.1957 47.3962C81.082 47.2648 81.0249 47.0285 81.0249 46.6886L81.0056 43.9978C81.0056 43.7343 81.073 43.541 81.2083 43.4174C81.3388 43.2944 81.5145 43.2326 81.734 43.2326C81.9872 43.2326 82.1731 43.2793 82.291 43.3732C82.413 43.4665 82.4744 43.6561 82.4744 43.9409V45.5289L83.2593 44.3553L83.7784 43.5901L83.7976 43.558C83.8608 43.4392 83.9456 43.3562 84.0508 43.3096C84.1519 43.2587 84.2746 43.2332 84.4177 43.2332C84.6631 43.2314 84.849 43.278 84.9759 43.372Z" fill="white"/>
<path d="M89.2927 44.4238C89.2927 44.3347 89.256 44.2578 89.182 44.1941C89.108 44.1305 89.0208 44.0984 88.9191 44.0984C88.7165 44.0984 88.5498 44.2141 88.4193 44.4462C88.2882 44.6782 88.2233 44.9406 88.2233 45.2338C88.2233 45.4592 88.2654 45.6622 88.3496 45.8428C88.4338 46.0233 88.5565 46.1669 88.7165 46.2729C88.877 46.379 89.0623 46.4323 89.2734 46.4323C89.4292 46.4323 89.5796 46.4014 89.7227 46.3396C89.8659 46.2778 89.9825 46.2099 90.071 46.1354C90.1594 46.0609 90.2514 45.993 90.3464 45.9312C90.4414 45.8694 90.5245 45.8385 90.5966 45.8385C90.6893 45.8385 90.7698 45.8755 90.8372 45.95C90.9046 46.0245 90.9383 46.1021 90.9383 46.1827C90.9383 46.2717 90.9118 46.3759 90.8589 46.4953C90.8059 46.614 90.7229 46.7407 90.6087 46.8746C90.495 47.0085 90.3621 47.1321 90.2099 47.2442C90.0577 47.3569 89.8689 47.4502 89.6433 47.5247C89.4178 47.5992 89.1802 47.6362 88.9312 47.6362C88.6022 47.6362 88.2972 47.5865 88.0164 47.4865C87.7355 47.3865 87.4919 47.2442 87.285 47.0594C87.0781 46.8746 86.9157 46.6419 86.7978 46.3614C86.6799 46.0809 86.6204 45.7664 86.6204 45.4174C86.6204 44.7285 86.8249 44.1844 87.2345 43.7852C87.6434 43.3859 88.1799 43.1859 88.8422 43.1859C89.1796 43.1859 89.4917 43.2435 89.7792 43.358C90.0661 43.4725 90.2941 43.6325 90.4631 43.8361C90.6321 44.0402 90.7163 44.2632 90.7163 44.5056C90.7163 44.7861 90.6237 45.04 90.4378 45.2678C90.252 45.495 90.0114 45.6089 89.7161 45.6089C89.5471 45.6089 89.3955 45.5622 89.2602 45.4683C89.1249 45.375 89.0575 45.2411 89.0575 45.0666C89.0575 44.986 89.0966 44.8733 89.1748 44.7285C89.2536 44.5855 89.2927 44.4837 89.2927 44.4238Z" fill="white"/>
<path d="M95.0849 46.6365C95.0849 46.8788 95.0554 47.0709 94.9965 47.2139C94.9376 47.3563 94.8564 47.455 94.7529 47.5102C94.6494 47.5653 94.5135 47.5932 94.3445 47.5932C94.0955 47.5932 93.9151 47.5259 93.8032 47.392C93.6913 47.2581 93.633 47.0212 93.6294 46.6813L93.6167 44.328H93.0784C92.8126 44.328 92.6129 44.2856 92.48 44.2002C92.347 44.1154 92.2803 43.9645 92.2803 43.7476C92.2803 43.6161 92.3067 43.5119 92.3597 43.435C92.4126 43.3586 92.4914 43.3041 92.5972 43.2726C92.7031 43.2411 92.8444 43.2247 93.0213 43.2247H95.7309C95.9673 43.2247 96.1381 43.2671 96.2433 43.352C96.3486 43.4368 96.4015 43.584 96.4015 43.7918C96.4015 43.9324 96.3708 44.0415 96.3095 44.1202C96.2481 44.199 96.1669 44.2529 96.0659 44.2826C95.9649 44.3123 95.8337 44.3274 95.6731 44.3274H95.0843V46.6365H95.0849Z" fill="white"/>
<path d="M99.2692 46.6365C99.2692 46.9806 99.2061 47.2266 99.0792 47.3732C98.9523 47.5199 98.7586 47.5932 98.497 47.5932C98.2353 47.5932 98.0435 47.5259 97.9208 47.392C97.7981 47.2581 97.7373 47.0212 97.7373 46.6813V43.9906C97.7373 43.7313 97.8071 43.5386 97.946 43.4132C98.0856 43.2877 98.269 43.2253 98.497 43.2253H99.6235C99.8978 43.2253 100.151 43.2629 100.383 43.3368C100.615 43.4113 100.817 43.5156 100.988 43.6495C101.158 43.7834 101.291 43.9512 101.386 44.1529C101.481 44.3547 101.529 44.5795 101.529 44.8255C101.529 45.1272 101.442 45.3896 101.269 45.6131C101.096 45.8361 100.868 46.0033 100.585 46.1136C100.303 46.2245 99.9838 46.2796 99.6295 46.2796H99.2686V46.6365H99.2692ZM100.067 44.7364C100.067 44.5795 100.052 44.4547 100.022 44.3632C99.9928 44.2717 99.9411 44.2026 99.8671 44.156C99.7931 44.1093 99.7131 44.0784 99.6265 44.0633C99.5399 44.0481 99.4208 44.0409 99.2686 44.0409V45.4435C99.3865 45.4435 99.4912 45.4332 99.582 45.4114C99.6728 45.3902 99.7558 45.3538 99.8322 45.3029C99.908 45.252 99.9663 45.1787 100.006 45.083C100.047 44.9885 100.067 44.8727 100.067 44.7364Z" fill="white"/>
<path d="M106.162 47.3793C105.829 47.5471 105.455 47.6313 105.039 47.6313C104.623 47.6313 104.25 47.5477 103.918 47.3793C103.587 47.2115 103.322 46.9594 103.124 46.6237C102.925 46.2881 102.826 45.8924 102.826 45.4374C102.826 44.7485 103.032 44.2014 103.443 43.7955C103.855 43.3895 104.388 43.1866 105.041 43.1866C105.696 43.1866 106.229 43.3895 106.643 43.7955C107.057 44.2014 107.263 44.7485 107.263 45.4374C107.263 45.8924 107.163 46.2875 106.962 46.6237C106.763 46.96 106.496 47.2115 106.162 47.3793ZM105.042 46.7007C105.185 46.7007 105.309 46.6371 105.412 46.5092C105.516 46.3814 105.59 46.2245 105.634 46.0372C105.678 45.85 105.701 45.6507 105.701 45.438C105.701 45.2211 105.677 45.0163 105.631 44.8224C105.584 44.6292 105.509 44.4644 105.406 44.328C105.302 44.1917 105.181 44.1239 105.042 44.1239C104.907 44.1239 104.789 44.1917 104.688 44.328C104.587 44.4644 104.51 44.6298 104.46 44.8255C104.409 45.0212 104.384 45.2254 104.384 45.4374C104.384 45.6501 104.408 45.85 104.457 46.0366C104.505 46.2239 104.581 46.3808 104.685 46.5086C104.788 46.6365 104.907 46.7007 105.042 46.7007Z" fill="white"/>
<path d="M38.1719 40.0535H34.2744V25.8134H38.1719V40.0535Z" fill="white"/>
<path d="M43.1784 40.0535H41.3716V25.8134H43.9044L52.4939 35.5936V25.8134H54.2904V40.0535H51.7577L43.1778 30.2836V40.0535H43.1784Z" fill="white"/>
<path d="M70.9492 33.2403V33.4281C70.9359 33.9819 70.8788 34.5557 70.7772 35.1489C70.6755 35.742 70.5336 36.3352 70.3501 36.9289C70.1667 37.5221 69.9477 38.1092 69.6927 38.689C69.4377 39.2695 69.1514 39.8245 68.8338 40.3552C68.5163 40.886 68.1746 41.3834 67.8077 41.8487C67.4408 42.3135 67.0553 42.7236 66.6493 43.0799L65.1865 42.2292C65.4157 41.8403 65.6232 41.4167 65.8097 40.9587C65.9961 40.5006 66.1645 40.0208 66.3155 39.5197C66.4659 39.0186 66.5952 38.5049 66.7034 37.9771C66.8111 37.45 66.9013 36.9259 66.9735 36.4049C67.0457 35.8844 67.0992 35.3712 67.1353 34.8671C67.1714 34.363 67.1894 33.8832 67.1894 33.4281C67.1894 33.0719 67.1876 32.6684 67.1846 32.217C67.181 31.7656 67.1551 31.3057 67.1058 30.8374C67.0565 30.3696 66.9765 29.9128 66.8652 29.4675C66.754 29.0227 66.5886 28.6253 66.3696 28.2757C66.1501 27.9261 65.8692 27.6462 65.5252 27.4353C65.1817 27.2245 64.7547 27.119 64.2441 27.119C63.7923 27.119 63.4044 27.1966 63.0808 27.3517C62.7566 27.5068 62.4818 27.7146 62.2562 27.9746C62.0307 28.2351 61.8502 28.5368 61.7161 28.8791C61.582 29.2221 61.4773 29.5832 61.4021 29.9619C61.3269 30.3411 61.2776 30.7235 61.2548 31.1088C61.2319 31.4948 61.2205 31.8589 61.2205 32.2018V34.961H65.4512V36.5927H61.2205V40.0535H57.323V32.815C57.323 31.7801 57.4866 30.8174 57.8138 29.9273C58.141 29.0373 58.6041 28.2642 59.2026 27.6086C59.8016 26.9524 60.521 26.4386 61.3624 26.066C62.2033 25.6934 63.141 25.5074 64.1749 25.5074C64.875 25.5074 65.5312 25.608 66.1429 25.8091C66.7546 26.0103 67.3127 26.2872 67.8168 26.6398C68.3208 26.9924 68.7707 27.4111 69.1664 27.8958C69.5622 28.3805 69.893 28.9094 70.1576 29.4832C70.4229 30.057 70.6238 30.6635 70.7615 31.3027C70.9005 31.9413 70.9624 32.5872 70.9492 33.2403Z" fill="white"/>
<path d="M76.1031 29.4329L75.0036 40.0535H72.5984L75.0036 25.8134H78.5673L81.8754 36.6811L85.2231 25.8134H88.7868L90.7897 40.0535H86.8236L85.6556 29.7098L82.8973 40.0535H79.3336L76.1031 29.4329Z" fill="white"/>
<path d="M107.929 32.9138C107.929 34.0607 107.733 35.0943 107.34 36.0141C106.947 36.9338 106.404 37.7136 105.711 38.3528C105.017 38.992 104.196 39.4834 103.247 39.8263C102.297 40.1692 101.27 40.3407 100.164 40.3407C99.058 40.3407 98.0307 40.1692 97.0816 39.8263C96.1325 39.4834 95.3115 38.9926 94.6174 38.3528C93.9239 37.7136 93.3808 36.9338 92.988 36.0141C92.5953 35.0943 92.3992 34.0613 92.3992 32.9138C92.3992 31.7468 92.594 30.7035 92.9832 29.7837C93.3723 28.864 93.9125 28.0861 94.6029 27.4499C95.2934 26.8137 96.1132 26.326 97.0617 25.9861C98.0108 25.6468 99.0448 25.4765 100.164 25.4765C101.283 25.4765 102.317 25.6462 103.266 25.9861C104.216 26.326 105.035 26.8137 105.725 27.4499C106.416 28.0861 106.956 28.864 107.345 29.7837C107.734 30.7035 107.929 31.7468 107.929 32.9138ZM103.963 32.9138C103.963 32.4787 103.943 32.0334 103.904 31.579C103.865 31.124 103.793 30.6823 103.688 30.2539C103.583 29.8255 103.441 29.4232 103.261 29.0476C103.081 28.6719 102.85 28.3442 102.569 28.0636C102.287 27.7837 101.949 27.5626 101.553 27.4008C101.157 27.239 100.694 27.1584 100.164 27.1584C99.6276 27.1584 99.1596 27.239 98.7603 27.4008C98.3609 27.5626 98.0205 27.7813 97.7396 28.0582C97.4581 28.3351 97.2289 28.6616 97.0521 29.0373C96.8753 29.4129 96.7363 29.8134 96.6347 30.2388C96.533 30.6641 96.4627 31.1058 96.4236 31.5638C96.3845 32.0219 96.3646 32.4721 96.3646 32.9138C96.3646 33.3488 96.3845 33.7941 96.4236 34.2485C96.4627 34.7035 96.5348 35.1434 96.6395 35.5687C96.7442 35.9941 96.8867 36.3946 97.0665 36.7702C97.2464 37.1459 97.4773 37.4743 97.7588 37.7542C98.0403 38.0347 98.3789 38.2571 98.7747 38.4219C99.1705 38.5867 99.6336 38.6691 100.163 38.6691C100.68 38.6691 101.132 38.5848 101.518 38.417C101.904 38.2492 102.238 38.0214 102.519 37.7348C102.801 37.4482 103.035 37.115 103.221 36.7363C103.408 36.357 103.555 35.9553 103.663 35.53C103.771 35.1046 103.847 34.6684 103.894 34.2194C103.94 33.7711 103.963 33.3354 103.963 32.9138Z" fill="white"/>
<path d="M31.6043 30.941C31.4209 30.3181 31.164 29.7443 30.8338 29.2203C30.503 28.6962 30.1073 28.223 29.6459 27.8013C29.1846 27.3796 28.6776 27.0215 28.1242 26.7282C27.5709 26.435 26.9809 26.209 26.3523 26.0509C25.7238 25.8927 25.076 25.8134 24.4084 25.8134H22.6052C22.622 25.8243 22.6395 25.8346 22.6569 25.8455C23.2626 26.2375 23.7973 26.7143 24.2592 27.2705C24.6297 27.3481 24.969 27.4656 25.2775 27.6231C25.8826 27.9334 26.3818 28.3514 26.7746 28.8791C27.1673 29.4069 27.4566 30.0182 27.6431 30.7138C27.8295 31.4093 27.9228 32.1424 27.9228 32.9137C27.9228 33.6784 27.8277 34.4072 27.6383 35.0992C27.4482 35.7911 27.1553 36.403 26.7595 36.9338C26.3638 37.4645 25.8627 37.8862 25.2577 38.1995C24.652 38.5127 23.9338 38.669 23.1026 38.669H22.0717V35.825C22.1258 34.7114 22.0927 33.7832 22.0464 33.107C21.934 31.4638 21.7102 30.8979 21.617 30.6568C21.3433 29.9509 20.953 29.4063 20.4243 28.9912C19.9215 28.5974 19.3074 28.4059 18.5477 28.4059C18.419 28.4059 18.2951 28.412 18.1748 28.4241V40.0535H24.4084C25.076 40.0535 25.7256 39.9729 26.3571 39.8111C26.9887 39.6494 27.5811 39.4203 28.1339 39.1241C28.6866 38.8272 29.1924 38.4667 29.6508 38.0413C30.1091 37.616 30.503 37.1398 30.8338 36.6127C31.164 36.0855 31.4209 35.51 31.6043 34.8871C31.7872 34.2643 31.8792 33.6063 31.8792 32.9143C31.8792 32.2224 31.7872 31.5638 31.6043 30.941Z" fill="white"/>
<path d="M16.9166 43.6161C15.8887 42.8218 14.367 42.1935 12.3515 41.7312C11.1937 41.4695 10.1159 40.9775 9.11865 40.2534C8.12021 39.5294 7.31245 38.5697 6.69354 37.3737C6.07463 36.1776 5.76548 34.7853 5.76548 33.1973C5.76548 31.4081 6.02952 30.0412 6.55881 29.096C7.0875 28.1515 7.87061 27.6789 8.90873 27.6789C9.48734 27.6789 9.99618 27.8297 10.4353 28.1315C10.8737 28.4332 11.2081 28.8555 11.4379 29.3978C11.6671 29.9406 11.7819 30.5538 11.7819 31.2372V33.107C11.7819 34.5951 12.0568 35.9117 12.6071 37.0574C13.1575 38.2031 13.9472 39.098 14.9775 39.7415C15.7131 40.2013 16.5389 40.4958 17.4531 40.6267V38.3534C17.0237 38.2292 16.6352 38.0286 16.2875 37.7511C15.659 37.2489 15.1898 36.5903 14.8807 35.7759C14.5709 34.9616 14.417 34.0722 14.417 33.107C14.417 32.1018 14.5763 31.1876 14.8957 30.363C15.2145 29.5389 15.6836 28.8852 16.3025 28.4029C16.9209 27.9206 17.6691 27.6789 18.5478 27.6789C19.4657 27.6789 20.2391 27.9255 20.8677 28.4175C21.6929 29.0633 22.0507 29.8304 22.2895 30.3926C22.8164 31.6317 22.8182 32.7829 22.8212 34.646C22.8218 35.1434 22.8074 35.5566 22.7936 35.8426V37.942H23.1027C23.4846 37.942 23.8371 37.9032 24.1601 37.8281C24.3291 37.5718 24.4831 37.2997 24.6226 37.012C25.1826 35.8559 25.4629 34.5545 25.4629 33.107C25.4629 31.6396 25.1826 30.3278 24.622 29.1718C24.3832 28.6798 24.1036 28.2339 23.7836 27.8328L23.7042 27.737C23.3451 27.3038 22.9337 26.9233 22.4796 26.6028C22.4742 26.5992 22.4688 26.5949 22.4634 26.5907C22.3984 26.5453 22.3328 26.5004 22.2661 26.4574C22.2661 26.4574 22.2306 26.4356 22.2192 26.4283L22.2119 26.4235C21.2147 25.7934 20.0876 25.4771 18.8299 25.4771C17.5494 25.4771 16.4385 25.7437 15.4984 26.2762C14.5583 26.8094 13.8377 27.6183 13.3379 28.704H13.2182C12.8989 27.6183 12.3449 26.8094 11.557 26.2762C10.7685 25.7437 9.81574 25.4771 8.69822 25.4771C7.5404 25.4771 6.53776 25.7837 5.68969 26.3968C4.84103 27.0106 4.19265 27.9 3.74395 29.0658C3.29466 30.2321 3.07031 31.6093 3.07031 33.1973C3.07031 34.5842 3.27541 35.8559 3.68501 37.012C4.09461 38.168 4.69367 39.1483 5.48339 39.9523C6.27251 40.7569 7.20659 41.3289 8.28622 41.6712V41.7918C7.28839 41.7918 6.29056 41.7918 5.29273 41.7918C4.71893 41.756 4.23294 42.2147 4.22332 42.7697C4.2137 43.3368 4.7063 43.8185 5.29273 43.7821H10.0509C11.1871 43.7821 12.1891 43.9124 13.0564 44.1741C13.9238 44.4353 14.6022 44.8024 15.09 45.275C15.3853 45.5604 15.5988 45.8779 15.7306 46.2263C15.8394 46.5147 15.8725 46.7722 15.8833 46.9491C15.8202 47.97 16.6514 48.6977 17.3545 48.6171C17.9782 48.5456 18.5725 47.8307 18.4877 46.9491C18.4678 45.521 17.9439 44.4104 16.9166 43.6161Z" fill="white"/>
<path d="M41.5214 21.2904C41.8642 21.2056 42.1199 21.1032 42.5517 20.9299C42.9018 20.7893 43.1869 20.6609 43.3817 20.5694C43.6596 20.3113 43.9381 20.0538 44.216 19.7957C44.0133 19.8326 43.8106 19.8696 43.6079 19.9066C43.6079 19.9035 43.6073 19.8993 43.6073 19.8993C43.6073 19.8975 43.6073 19.8963 43.6073 19.8963C43.6073 19.8926 43.6073 19.8896 43.6067 19.886H25.7227C25.1609 19.8532 24.7489 20.3264 24.7965 20.7548C24.838 21.1323 25.2373 21.4752 25.7227 21.4346H40.443C40.9037 21.4219 41.2712 21.3522 41.5214 21.2904Z" fill="white"/>
<path d="M68.7468 19.8866C68.7546 20.3991 68.7733 20.9208 68.7444 21.4352H86.7198C87.1709 21.4625 87.5516 21.0929 87.5468 20.6524C87.542 20.218 87.1643 19.8599 86.7198 19.8866C80.7286 19.8866 74.7374 19.8866 68.7468 19.8866Z" fill="white"/>
<path d="M44.3753 16.8693C44.344 16.5148 44.3278 16.1561 44.3278 15.7938C44.3278 9.08544 49.7458 3.62701 56.4058 3.62701C63.0653 3.62701 68.4839 9.08484 68.4839 15.7938C68.4839 16.3682 68.443 16.9323 68.366 17.4855C68.5542 17.6484 68.7431 17.8072 68.9331 17.9623C69.1924 18.0447 69.4504 18.1428 69.7072 18.2561C69.8522 17.4521 69.9274 16.6287 69.9274 15.7938C69.9274 12.1555 68.5211 8.73524 65.9673 6.16265C63.4135 3.59006 60.0182 2.17349 56.4064 2.17349C52.7946 2.17349 49.3994 3.59006 46.8455 6.16265C44.2917 8.73524 42.8855 12.1555 42.8855 15.7938C42.8855 16.6414 42.9625 17.4776 43.1122 18.2937C43.573 17.869 43.9934 17.394 44.3753 16.8693Z" fill="white"/>
<path fill-rule="evenodd" clip-rule="evenodd" d="M52.026 17.5915C52.1734 16.4985 50.286 15.4248 52.1289 15.9616C52.2443 15.9937 52.7646 16.8796 53.0214 16.3627C53.0732 16.2658 52.4434 15.755 52.4952 15.3667C52.5661 14.7977 50.858 14.9656 50.9416 14.0216C50.9993 13.4327 50.1007 14.041 49.8565 14.3512C49.0734 15.3473 49.6641 15.5284 47.9559 16.6536C46.2862 17.7532 46.8961 16.2658 44.8993 18.9759C43.9874 20.218 43.2747 20.716 41.7085 21.0069C41.1623 21.1105 40.6102 21.2595 40.0713 21.414C42.4597 20.5543 44.3152 19.0922 45.6511 17.0419C47.6925 15.3473 49.234 13.8725 50.2739 12.6111C50.9223 12.0355 51.4233 12.0355 51.7632 12.6111C52.0459 13.1606 52.444 13.3551 52.9511 13.18C53.5994 13.2255 54.3122 13.9434 55.0893 15.3339C57.2335 13.2836 58.7041 11.7247 59.5136 10.651C60.0081 9.84218 60.6823 10.0494 61.5424 11.2781C63.6547 14.4669 65.9409 17.0413 68.3937 19.0008C69.6778 19.3631 70.9361 20.1653 72.1691 21.4134C68.1302 21.4134 66.1075 21.4134 66.1075 21.4134C65.0549 19.8872 64.2586 19.085 63.7257 19.0141C61.2471 18.7487 59.4818 19.68 58.4412 21.8084C58.7047 19.7969 60.2775 18.2119 62.2744 17.9471C61.5039 15.3473 58.2873 18.3288 60.2709 16.2785C60.5662 15.9744 61.2982 16.0652 61.4588 15.5024C61.5803 15.0819 62.0109 14.6808 61.3048 14.4221C61.0799 14.3445 60.085 13.6787 60.7142 13.2842C61.4143 12.8443 60.9325 11.9325 60.31 11.5247C59.6809 11.1236 59.1798 13.2648 58.0755 13.7047C57.3694 13.9895 55.2312 16.001 54.8649 16.6675C54.563 17.211 51.6609 19.9987 51.1413 20.3283C51.0961 20.3604 49.3242 21.706 49.311 21.7254C49.5552 20.3543 50.3317 19.5327 51.4618 18.8929C51.9935 18.5875 51.9484 18.1798 52.026 17.5915Z" fill="white"/>
</svg>
